<?xml version="1.0" encoding="utf-8"?>
<!-- Generator: Adobe Illustrator 23.0.6, SVG Export Plug-In . SVG Version: 6.00 Build 0)  -->
<svg version="1.1" id="Layer_4" xmlns="http://www.w3.org/2000/svg" xmlns:xlink="http://www.w3.org/1999/xlink" x="0px" y="0px"
	 viewBox="0 0 306.14 99.46" style="enable-background:new 0 0 306.14 99.46;" xml:space="preserve">
<style type="text/css">
	.st0{fill:#EEEFF0;}
	.st1{fill:#FFFFFF;}
	.st2{fill:none;stroke:#000000;stroke-width:6;stroke-miterlimit:10;}
	.st3{fill:#ECECEC;}
</style>
<g>
	<path class="st0" d="M261.77,5.07c7.72,0.74,22.43,2.65,26.5,19.92c0,0-6.28-14.09-16.62-16.39
		C266.83,7.53,261.77,5.07,261.77,5.07"/>
	<path class="st0" d="M267.2,48.99c0,0-17.97,1.89-17.19-17.61C250.01,31.38,245.76,52.58,267.2,48.99"/>
	<polygon class="st0" points="79.48,22.28 85.26,22.28 86.35,23.38 89.72,32.77 83.91,23.4 	"/>
	<path class="st0" d="M131.6,22.28h8.57c0,0,10.44,0.23,12.29,9.44c0,0-4.21-7.32-10.79-7.87C135.09,23.3,131.6,22.28,131.6,22.28"
		/>
	<polygon class="st0" points="170.45,22.28 173.33,22.28 174.53,23.48 174.53,32.77 173.05,24.31 	"/>
	<polygon class="st0" points="220.34,22.31 227.32,22.31 228.22,23.21 228.22,29.15 226.76,23.46 	"/>
	<polygon class="st0" points="12.18,22.05 14.94,22.05 15.7,22.81 15.7,30.98 14.65,22.92 	"/>
	<polygon class="st0" points="43.61,22.05 46.37,22.05 47.13,22.81 47.13,30.98 46.09,22.92 	"/>
	<path class="st1" d="M74.09,51.58l5.72-15.86h0.64l5.72,15.86l-0.63,0.63h-10.8L74.09,51.58z M74.99,20.28l-1.1,1.1L56.82,64.43
		v5.02l1.28-0.36l7.44,0.75l1.72,0.5l2.83-7.37l1.01-0.51h18.04l1.01,0.51l2.66,6.91l3.91-1.28l5.66-1.72h1.05v-2.46L86.36,21.38
		l-1.1-1.1H74.99z M164.59,20.28l-1.22,1.22v50.8l1.22,1.22h5.29l5.46-2.65V21.5l-1.22-1.22H164.59z M37.1,20.28l-1.22,1.22v18.19
		l-1.22,1.22H17.38l-1.22-1.22V21.5l-1.22-1.22H5.41L4.19,21.5v50.8l1.22,1.22h9.53l1.22-1.22V52.63l1.22-1.22h17.28l1.22,1.22
		v18.81l1.49,2.08h9.29l1.19-1.22V21.5l-1.22-1.22H37.1z M185.94,20.28l-1.22,1.22v8.05l1.22,1.22h13.77l1.22,1.22v31.69l1.22,0.77
		l9.53-0.3l1.22-0.86v-31.3l1.22-1.22h13.77l1.22-1.22V21.5l-1.22-1.22H185.94z M264.18,46.99c-8.4,0-13.61-6.35-13.61-16.56
		c0-10.22,5.22-16.56,13.61-16.56c8.4,0,13.61,6.35,13.61,16.56C277.79,40.64,272.57,46.99,264.18,46.99 M264.18,3.07
		c-15.48,0-25.88,10.99-25.88,27.36s10.4,27.35,25.88,27.35s25.88-10.99,25.88-27.35S279.66,3.07,264.18,3.07 M135.97,63.03h-10.69
		l-1.24-1.24v-9.37l1.24-1.24h10.69c4.68,0,6.68,1.77,6.68,5.93C142.65,61.25,140.65,63.03,135.97,63.03 M124.03,32.02l1.24-1.24
		h10.69c3.67,0,5.17,1.5,5.17,5.17c0,1.93-0.67,5.17-5.17,5.17h-10.69l-1.24-1.25C124.03,39.87,124.03,32.02,124.03,32.02z
		 M147.01,45.98V45.5c3.9-1.89,6.1-5.84,6.1-11.13c0-4.65-1.7-8.41-4.93-10.88c-2.7-2.07-6.48-3.21-10.64-3.21h-23.92l-1.22,1.22
		v48.06l3.05,3.95h20.79h4.94c7.52,0,13.4-3.89,13.4-14.83C154.58,52.3,151.97,47.94,147.01,45.98 M282.29,72.55v-3.3l-0.98-0.98
		h-34.28c-0.38,0.38-0.6,0.6-0.98,0.98v3.3"/>
	<path class="st2" d="M74.09,51.58l5.72-15.86h0.64l5.72,15.86l-0.63,0.63h-10.8L74.09,51.58z M66.98,71.05l3.11-8.08l1.01-0.51
		h18.04l1.01,0.51l2.12,5.5l4.45,0.13l5.66-1.72h1.05v-2.46L86.36,21.38l-1.1-1.1H74.99l-1.1,1.1L56.82,64.43v4.02 M164.59,20.28
		l-1.22,1.22v25.99V72.3l1.22,1.22h5.29l5.46-2.65v-23.2V21.5l-1.22-1.22H164.59z M37.1,20.28l-1.22,1.22v18.19l-1.22,1.22H17.38
		l-1.22-1.22V21.5l-1.22-1.22H5.41L4.19,21.5v50.8l1.22,1.22h9.53l1.22-1.22V52.63l1.22-1.22h17.28l1.22,1.22v18.81l1.49,2.08h9.29
		l1.19-1.22V21.5l-1.22-1.22H37.1z M185.94,20.28l-1.22,1.22v8.05l1.22,1.22h13.77l1.22,1.22v31.69l1.22,0.77l9.53-0.3l1.22-0.86
		v-31.3l1.22-1.22h13.77l1.22-1.22V21.5l-1.22-1.22H185.94z M264.18,46.99c-8.4,0-13.61-6.35-13.61-16.56
		c0-10.22,5.22-16.56,13.61-16.56c8.4,0,13.61,6.35,13.61,16.56C277.79,40.64,272.57,46.99,264.18,46.99 M264.18,3.07
		c-15.48,0-25.88,10.99-25.88,27.36s10.4,27.35,25.88,27.35s25.88-10.99,25.88-27.35S279.66,3.07,264.18,3.07 M135.97,63.03h-10.69
		l-1.24-1.24v-9.37l1.24-1.24h10.69c4.68,0,6.68,1.77,6.68,5.93C142.65,61.25,140.65,63.03,135.97,63.03 M124.03,32.02l1.24-1.24
		h10.69c3.67,0,5.17,1.5,5.17,5.17c0,1.93-0.67,5.17-5.17,5.17h-10.69l-1.24-1.25C124.03,39.87,124.03,32.02,124.03,32.02z
		 M147.01,45.98V45.5c3.9-1.89,6.1-5.84,6.1-11.13c0-4.65-1.7-8.41-4.93-10.88c-2.7-2.07-6.48-3.21-10.64-3.21h-23.92l-1.22,1.22
		v47.06l5.05,4.95h9.15h9.64h4.94c7.52,0,13.4-3.89,13.4-14.83C154.58,52.3,151.97,47.94,147.01,45.98 M282.29,72.55v-3.3
		l-0.98-0.98h-34.28c-0.38,0.38-0.6,0.6-0.98,0.98v3.3"/>
	<path class="st1" d="M74.61,50.53l5.72-15.86h0.64l5.72,15.86l-0.63,0.63h-10.8L74.61,50.53z M75.52,19.23l-1.1,1.1L57.35,63.38
		v5.42l9.64,2.57l3.63-9.45l1.01-0.51h18.04l1.01,0.51l3.63,9.45l2.41,1.54l5.55-2.57l1.68-1.29v-5.66L86.88,20.33l-1.1-1.1H75.52z
		 M165.12,19.23l-1.22,1.22v50.8l1.22,1.22h9.53l1.22-1.22v-50.8l-1.22-1.22C174.65,19.23,165.12,19.23,165.12,19.23z M37.62,19.23
		l-1.22,1.22v18.19l-1.22,1.22H17.9l-1.22-1.22V20.45l-1.22-1.22H5.93l-1.22,1.22v50.8l1.22,1.22h9.53l1.22-1.22V51.58l1.22-1.22
		h17.28l1.22,1.22v19.67l1.22,1.22h9.53l1.22-1.22v-50.8l-1.22-1.22C47.15,19.23,37.62,19.23,37.62,19.23z M186.46,19.23l-1.22,1.22
		v8.05l1.22,1.22h13.77l1.22,1.22v35.14l1.22,0.62l7.77,1.56l2.97-3.32v-34l1.22-1.22h13.77l1.22-1.22v-8.05l-1.22-1.22
		C228.4,19.23,186.46,19.23,186.46,19.23z M264.7,45.94c-8.4,0-13.61-6.35-13.61-16.56s5.22-16.56,13.61-16.56
		c8.4,0,13.61,6.35,13.61,16.56S273.1,45.94,264.7,45.94 M264.7,2.02c-15.48,0-25.88,10.99-25.88,27.35s10.4,27.35,25.88,27.35
		s25.88-10.99,25.88-27.35S280.18,2.02,264.7,2.02 M136.49,61.98H125.8l-1.25-1.24v-9.36l1.25-1.24h10.69
		c4.68,0,6.68,1.77,6.68,5.92C143.17,60.2,141.17,61.98,136.49,61.98 M124.56,30.97l1.25-1.24h10.69c3.67,0,5.17,1.5,5.17,5.17
		c0,1.93-0.67,5.17-5.17,5.17h-10.7l-1.25-1.24L124.56,30.97L124.56,30.97z M147.53,44.93v-0.48c3.9-1.89,6.1-5.84,6.1-11.13
		c0-4.65-1.7-8.41-4.93-10.88c-2.7-2.07-6.48-3.21-10.64-3.21h-23.92l-1.22,1.22v50.8l1.22,1.22h25.4c7.53,0,15.57-3.89,15.57-14.83
		C155.11,51.24,152.5,46.89,147.53,44.93 M281.84,72.47l0.98-0.98V68.2l-0.98-0.98h-34.28c-0.38,0.38-0.6,0.6-0.98,0.98v3.29
		c0.38,0.38,0.6,0.6,0.98,0.98h10.87l6.52,3.16l2.81-3.16H281.84"/>
	<path d="M306.15,59.83c-1.01-0.15-2.04-0.17-3.09-0.08c-3.34,0.3-6.53,1.31-9.56,2.78c-2.72,1.32-4.93,3.18-6.51,5.78
		c-0.5,0.81-1.04,1.6-1.62,2.49c-3.64-1.55-7.33-2.01-11.19-1.47c-3.94,0.55-7.36,2.09-10.01,4.66c-1.78-0.66-3.26-1.37-4.83-1.75
		c-1.97-0.48-4-0.8-6.02-1.01c-5.45-0.58-10.6,0.14-15.16,3.52c-2.83,2.1-4.33,5.09-6.01,8.24c0.35-0.11,0.48-0.11,0.52-0.18
		c2.25-2.98,5.27-4.9,8.65-6.34c5.61-2.38,11.31-3.48,17.33-1.63c2.55,0.78,5.11,1.47,7.04,3.49c0.14,0.15,0.38,0.2,0.62,0.33
		c1.42-1.94,3.21-3.37,5.23-4.57c1.56-0.93,3.2-1.41,5.01-1.32c3.2,0.17,6.99,0.4,12.06,5.57c-0.02-3.11,1.71-8.98,3.52-11.11
		c2.82-3.32,9.54-6.12,14.02-5.8V59.83z"/>
	<path d="M236.49,69.92c0,0-2.58-6.35-11.22-6.59c-8.63-0.24-12.73,6.92-12.73,6.92s6.36,0.47,8,4.84c-4.8-0.72-11.03-2.5-18.7,5.54
		c-0.67-5.81,7.27-9.02,7.27-9.02s-5.45-5.03-16.14-1.15s-12.08,10.96-12.08,10.96s-1.14-1.14-0.9-2.04s0.62-3.86,1.69-4.86
		c-3.73-1.03-8.98-0.83-13.68,5.24c-1.61-4,6.7-12.04,15.94-7.96c6.31-5.77,13.15-6.91,17.06-6.67c3.91,0.24,8.02,2.22,8.02,2.22
		s5.01-7.58,14.87-7.18C233.74,60.57,237.37,64.78,236.49,69.92z"/>
	<path d="M46.95,92.88c0,0,8.11-8.86,18.44-1.93c8.13-7.52,13.26-6.91,15.83-3.21c2.08-5.18,7.54-6.07,7.54-6.07
		c-4.48-10.18-19.72-3.57-19.72-3.57c0.76-4.12-4.02-7.52-8.47-7.28s-8.35,2.94-11.78,5.69c-0.93,0.74-1.91,1.6-2.07,2.73
		c-4.69-1.86-10.37-1.54-14.91,0.85s-7.86,6.78-8.72,11.55C15.18,87.38,3.42,91.38,0,99.48c3.69-19.49,20.45-12.22,20.45-12.22
		c2.62-8.5,13.46-14.06,22.35-11.47c0.7,0.2,1.45,0.45,2.15,0.21c0.81-0.27,1.24-1.08,1.66-1.79c2.28-3.83,6.72-6.49,11.35-6.82
		c4.63-0.32,10.33,2.47,12.97,5.96c13.33-2.94,18.59,6.41,18.59,6.41c4.16-1.39,8.97-0.73,12.43,1.69
		c3.45,2.42,5.45,6.54,5.15,10.63c0.14-1.91-2.95-4.51-4.38-5.49c-2.18-1.5-4.87-2.41-7.61-2.54c-5.63-0.27-11.3,3.08-13.45,7.76
		c-2.13-1.85-4.74-2.17-7.58-1.34c-2.84,0.82-5.83,3.85-7.57,6.13C66.52,96.59,61.21,87.61,46.95,92.88z"/>
	<path d="M65.39,90.95"/>
	<path d="M77.58,85.15"/>
	<path d="M81.22,87.74"/>
	<path d="M114.31,81.93c5.43-2.15,13.66,0.44,17.28,6.91c0.39-8.19-9.07-11.64-14.19-10.85c-8.44-18.82-23.49-6.33-23.49-6.33
		c-9.12-6.11-16.28,1.71-16.28,1.71c0.95-0.35,1.17,0.38,2.02,0.17c10.56-2.66,15.25,3.11,15.25,3.11S109.89,65.64,114.31,81.93z"/>
	<path class="st3" d="M262.73,3.62c7.68,0.74,22.31,2.63,26.35,19.81c0,0-6.25-14.01-16.53-16.29
		C267.75,6.07,262.73,3.62,262.73,3.62z"/>
	<path class="st3" d="M146.72,47.33c0,0,6.65,1.13,5.74,12.13C152.46,59.47,151.18,51.39,146.72,47.33z"/>
	<path class="st3" d="M266.64,47.72c0,0-17.87,1.88-17.1-17.51C249.55,30.21,245.32,51.29,266.64,47.72z"/>
	<polygon class="st3" points="79.25,20.86 85,20.86 86.09,21.95 89.44,31.29 83.66,21.97 	"/>
	<polygon class="st3" points="88.25,51.58 87.42,53 78.15,53 88.25,54.01 	"/>
	<path class="st3" d="M131.08,20.86h8.52c0,0,10.38,0.23,12.22,9.39c0,0-4.19-7.28-10.73-7.83
		C134.55,21.87,131.08,20.86,131.08,20.86z"/>
	<path class="st3" d="M130.14,63.57h6.88c0,0,5.64,0.07,6.45-4.1c0,0-0.79,5.32-5.18,5.32s-5.7,0-5.7,0L130.14,63.57z"/>
	<polygon class="st3" points="169.71,20.86 172.57,20.86 173.76,22.06 173.76,31.29 172.29,22.88 	"/>
	<polygon class="st3" points="219.32,20.89 226.25,20.89 227.15,21.78 227.15,27.69 225.7,22.03 	"/>
	<polygon class="st3" points="12.33,20.63 15.07,20.63 15.83,21.39 15.83,29.51 14.79,21.49 	"/>
	<polygon class="st3" points="43.59,20.63 46.33,20.63 47.09,21.39 47.09,29.51 46.05,21.49 	"/>
	<polygon class="st3" points="270.72,67.63 281.74,67.63 282.33,68.21 282.33,69.66 280.6,68.64 	"/>
</g>
</svg>
